<svg width="12" height="14" viewBox="0 0 12 14" fill="none" xmlns="http://www.w3.org/2000/svg">
<path d="M0.666687 8.33333H3.33335V13C3.33335 13.1768 3.40359 13.3464 3.52862 13.4714C3.65364 13.5964 3.82321 13.6667 4.00002 13.6667H8.00002C8.17683 13.6667 8.3464 13.5964 8.47143 13.4714C8.59645 13.3464 8.66669 13.1768 8.66669 13V8.33333H11.3334C11.4589 8.33311 11.5818 8.29751 11.688 8.2306C11.7942 8.16369 11.8793 8.06819 11.9337 7.95507C11.9881 7.84195 12.0094 7.71578 11.9953 7.59106C11.9812 7.46635 11.9323 7.34813 11.854 7.24999L6.52069 0.583325C6.26669 0.266659 5.73335 0.266659 5.47935 0.583325L0.14602 7.24999C0.0677795 7.34813 0.0188009 7.46635 0.00470849 7.59106C-0.00938397 7.71578 0.011981 7.84195 0.0663502 7.95507C0.120719 8.06819 0.205889 8.16369 0.312079 8.2306C0.418269 8.29751 0.541176 8.33311 0.666687 8.33333Z" fill="#969696"/>
</svg>
