<svg width="18" height="20" viewBox="0 0 18 20" fill="none" xmlns="http://www.w3.org/2000/svg">
<path d="M9.78103 0.374999C9.40003 -0.100001 8.60003 -0.100001 8.21903 0.374999L0.219031 10.375C0.101669 10.5222 0.0282014 10.6995 0.00706273 10.8866C-0.014076 11.0737 0.0179715 11.2629 0.0995253 11.4326C0.181079 11.6023 0.308833 11.7455 0.468118 11.8459C0.627404 11.9463 0.811764 11.9997 1.00003 12H5.00003V19C5.00003 19.2652 5.10539 19.5196 5.29292 19.7071C5.48046 19.8946 5.73481 20 6.00003 20H12C12.2652 20 12.5196 19.8946 12.7071 19.7071C12.8947 19.5196 13 19.2652 13 19V12H17C17.1883 11.9997 17.3727 11.9463 17.5319 11.8459C17.6912 11.7455 17.819 11.6023 17.9005 11.4326C17.9821 11.2629 18.0141 11.0737 17.993 10.8866C17.9719 10.6995 17.8984 10.5222 17.781 10.375L9.78103 0.374999V0.374999ZM12 10H11V18H7.00003V10H3.08103L9.00003 2.601L14.919 10H12Z" fill="#51646D"/>
</svg>
